<?xml version="1.0" encoding="UTF-8"?>
<svg id="Layer_1" data-name="Layer 1" xmlns="http://www.w3.org/2000/svg" version="1.1" viewBox="0 0 1652 428">
  <defs>
    <style>
      .cls-1, .cls-2 {
        fill: none;
      }

      .cls-1, .cls-3, .cls-4 {
        stroke: #2f4d5d;
        stroke-width: 3px;
      }

      .cls-1, .cls-4 {
        stroke-miterlimit: 10;
      }

      .cls-2 {
        stroke-width: 0px;
      }

      .cls-3 {
        fill: #d4e0ec;
      }

      .cls-5 {
        font-family: CourierNewPS-BoldMT, 'Courier New';
        font-size: 14px;
        font-weight: 700;
      }

      .cls-5, .cls-6 {
        isolation: isolate;
      }

      .cls-5, .cls-6, .cls-4 {
        fill: #2f4d5d;
      }

      .cls-6 {
        font-family: Helvetica, Helvetica;
        font-size: 12px;
      }
    </style>
  </defs>
  <path class="cls-2" d=""/>
  <g>
    <path class="cls-1" d="M162.8,32.5h117.8" pointer-events="stroke"/>
    <path class="cls-1" d="M132.8,32.5h-32.2" pointer-events="stroke"/>
    <circle class="cls-3" cx="147.8" cy="32.5" r="15" pointer-events="all"/>
    <text class="cls-6" transform="translate(138.7 14)"><tspan x="0" y="0">1.0</tspan></text>
    <rect class="cls-2" x="20.5" y="14.5" width="50" height="42" pointer-events="all"/>
    <text class="cls-5" transform="translate(34.4 39)"><tspan x="0" y="0">main</tspan></text>
    <rect class="cls-2" x=".5" y="52.5" width="70" height="42" pointer-events="all"/>
    <text class="cls-5" transform="translate(17.6 77)"><tspan x="0" y="0">stage1</tspan></text>
    <g>
      <path class="cls-1" d="M210.5,79.5c13.4,0,18.4,0,15.1,0s-1.7,0,4.8,0" pointer-events="stroke"/>
      <path class="cls-4" d="M237.1,79.5l-9,4.5,2.2-4.5-2.2-4.5,9,4.5Z" pointer-events="all"/>
    </g>
    <circle class="cls-3" cx="195.5" cy="79.5" r="15" pointer-events="all"/>
    <text class="cls-6" transform="translate(186.7 113)"><tspan x="0" y="0">1.1</tspan></text>
    <g>
      <path class="cls-1" d="M147.8,47.5c0,21.3,7.6,32,22.6,32" pointer-events="stroke"/>
      <path class="cls-4" d="M177.1,79.5l-9,4.5,2.2-4.5-2.2-4.5,9,4.5Z" pointer-events="all"/>
    </g>
    <circle class="cls-3" cx="295.5" cy="32.5" r="15" pointer-events="all"/>
    <text class="cls-6" transform="translate(286.7 14)"><tspan x="0" y="0">2.0</tspan></text>
    <circle class="cls-3" cx="255.5" cy="79.5" r="15" pointer-events="all"/>
    <text class="cls-6" transform="translate(246.7 113)"><tspan x="0" y="0">1.2</tspan></text>
    <g>
      <path class="cls-1" d="M270.5,79.5c16.7,0,25-7.3,25-21.9" pointer-events="stroke"/>
      <path class="cls-4" d="M295.5,50.8l4.5,9-4.5-2.2-4.5,2.2,4.5-9Z" pointer-events="all"/>
    </g>
    <g>
      <path class="cls-1" d="M350.5,115.5c13.4,0,19,0,17,0s.3,0,6.9,0" pointer-events="stroke"/>
      <path class="cls-4" d="M381.1,115.5l-9,4.5,2.2-4.5-2.2-4.5,9,4.5Z" pointer-events="all"/>
    </g>
    <circle class="cls-3" cx="335.5" cy="115.5" r="15" pointer-events="all"/>
    <text class="cls-6" transform="translate(326.7 149)"><tspan x="0" y="0">2.1</tspan></text>
    <g>
      <path class="cls-1" d="M310.5,32.5c16.7,0,25,19.3,25,57.9" pointer-events="stroke"/>
      <path class="cls-4" d="M335.5,97.2l-4.5-9,4.5,2.2,4.5-2.2-4.5,9Z" pointer-events="all"/>
    </g>
    <g>
      <path class="cls-1" d="M399.5,100.5v-42.9" pointer-events="stroke"/>
      <path class="cls-4" d="M399.5,50.8l4.5,9-4.5-2.2-4.5,2.2,4.5-9Z" pointer-events="all"/>
    </g>
    <circle class="cls-3" cx="399.5" cy="115.5" r="15" pointer-events="all"/>
    <text class="cls-6" transform="translate(390.7 149)"><tspan x="0" y="0">2.2</tspan></text>
    <circle class="cls-3" cx="399.5" cy="32.5" r="15" pointer-events="all"/>
    <text class="cls-6" transform="translate(390.7 14)"><tspan x="0" y="0">3.0</tspan></text>
    <circle class="cls-3" cx="439.5" cy="149.5" r="15" pointer-events="all"/>
    <text class="cls-6" transform="translate(430.7 183)"><tspan x="0" y="0">3.1</tspan></text>
    <circle class="cls-3" cx="499.5" cy="149.5" r="15" pointer-events="all"/>
    <text class="cls-6" transform="translate(490.7 183)"><tspan x="0" y="0">3.2</tspan></text>
    <circle class="cls-3" cx="499.5" cy="32.5" r="15" pointer-events="all"/>
    <text class="cls-6" transform="translate(490.7 14)"><tspan x="0" y="0">4.0</tspan></text>
    <g>
      <path class="cls-1" d="M414.5,32.5c16.7,0,25,30.7,25,91.9" pointer-events="stroke"/>
      <path class="cls-4" d="M439.5,131.1l-4.5-9,4.5,2.2,4.5-2.2-4.5,9Z" pointer-events="all"/>
    </g>
    <g>
      <path class="cls-1" d="M454.5,149.5h19.9" pointer-events="stroke"/>
      <path class="cls-4" d="M481.1,149.5l-9,4.5,2.2-4.5-2.2-4.5,9,4.5Z" pointer-events="all"/>
    </g>
    <rect class="cls-2" x=".5" y="94.5" width="70" height="42" pointer-events="all"/>
    <text class="cls-5" transform="translate(17.6 119)"><tspan x="0" y="0">stage2</tspan></text>
    <rect class="cls-2" x=".5" y="134.5" width="70" height="42" pointer-events="all"/>
    <text class="cls-5" transform="translate(17.6 159)"><tspan x="0" y="0">stage3</tspan></text>
    <rect class="cls-2" x=".5" y="176.5" width="70" height="42" pointer-events="all"/>
    <text class="cls-5" transform="translate(17.6 201)"><tspan x="0" y="0">stage4</tspan></text>
    <rect class="cls-2" x=".5" y="214.5" width="70" height="42" pointer-events="all"/>
    <text class="cls-5" transform="translate(17.6 239)"><tspan x="0" y="0">stage5</tspan></text>
    <rect class="cls-2" x=".5" y="254.5" width="70" height="42" pointer-events="all"/>
    <text class="cls-5" transform="translate(17.6 279)"><tspan x="0" y="0">stage6</tspan></text>
    <rect class="cls-2" x=".5" y="294.5" width="70" height="42" pointer-events="all"/>
    <text class="cls-5" transform="translate(17.6 319)"><tspan x="0" y="0">stage7</tspan></text>
    <rect class="cls-2" x=".5" y="334.5" width="70" height="42" pointer-events="all"/>
    <text class="cls-5" transform="translate(17.6 359)"><tspan x="0" y="0">stage8</tspan></text>
    <rect class="cls-2" x=".5" y="374.5" width="70" height="42" pointer-events="all"/>
    <text class="cls-5" transform="translate(17.6 399)"><tspan x="0" y="0">stage9</tspan></text>
    <g>
      <path class="cls-1" d="M564.5,193.5c13.4,0,19,0,17,0s.3,0,6.9,0" pointer-events="stroke"/>
      <path class="cls-4" d="M595.2,193.5l-9,4.5,2.2-4.5-2.2-4.5,9,4.5Z" pointer-events="all"/>
    </g>
    <circle class="cls-3" cx="549.5" cy="193.5" r="15" pointer-events="all"/>
    <text class="cls-6" transform="translate(540.7 227)"><tspan x="0" y="0">4.1</tspan></text>
    <g>
      <path class="cls-1" d="M514.5,32.5c23.3,0,35,45.3,35,135.9" pointer-events="stroke"/>
      <path class="cls-4" d="M549.5,175.1l-4.5-9,4.5,2.2,4.5-2.2-4.5,9Z" pointer-events="all"/>
    </g>
    <circle class="cls-3" cx="613.5" cy="193.5" r="15" pointer-events="all"/>
    <text class="cls-6" transform="translate(604.7 227)"><tspan x="0" y="0">4.2</tspan></text>
    <g>
      <path class="cls-1" d="M688.5,193.5c13.4,0,18.4,0,15,0s-1.7,0,4.9,0" pointer-events="stroke"/>
      <path class="cls-4" d="M715.2,193.5l-9,4.5,2.2-4.5-2.2-4.5,9,4.5Z" pointer-events="all"/>
    </g>
    <circle class="cls-3" cx="673.5" cy="193.5" r="15" pointer-events="all"/>
    <text class="cls-6" transform="translate(664.7 227)"><tspan x="0" y="0">4.3</tspan></text>
    <circle class="cls-3" cx="733.5" cy="193.5" r="15" pointer-events="all"/>
    <text class="cls-6" transform="translate(724.7 227)"><tspan x="0" y="0">4.4</tspan></text>
    <g>
      <path class="cls-1" d="M628.5,193.5h19.9" pointer-events="stroke"/>
      <path class="cls-4" d="M655.2,193.5l-9,4.5,2.2-4.5-2.2-4.5,9,4.5Z" pointer-events="all"/>
    </g>
    <path class="cls-1" d="M310.5,32.5h74" pointer-events="stroke"/>
    <path class="cls-1" d="M414.5,32.5h70" pointer-events="stroke"/>
    <path class="cls-1" d="M748.5,32.5h242" pointer-events="stroke"/>
    <circle class="cls-3" cx="733.5" cy="32.5" r="15" pointer-events="all"/>
    <text class="cls-6" transform="translate(724.7 14)"><tspan x="0" y="0">5.0</tspan></text>
    <path class="cls-1" d="M514.5,32.5h204" pointer-events="stroke"/>
    <g>
      <path class="cls-1" d="M733.5,178.5V57.6" pointer-events="stroke"/>
      <path class="cls-4" d="M733.5,50.8l4.5,9-4.5-2.2-4.5,2.2,4.5-9Z" pointer-events="all"/>
    </g>
    <g>
      <path class="cls-1" d="M810.5,233.5c0,.7,32.5,1.1,97.5,1.1s97.5-59,97.5-177" pointer-events="stroke"/>
      <path class="cls-4" d="M1005.5,50.8l4.5,9-4.5-2.2-4.5,2.2,4.5-9Z" pointer-events="all"/>
    </g>
    <circle class="cls-3" cx="795.5" cy="233.5" r="15" pointer-events="all"/>
    <text class="cls-6" transform="translate(761.3 237)"><tspan x="0" y="0">5.1</tspan></text>
    <g>
      <path class="cls-1" d="M748.5,32.5c31.3,0,47,58.7,47,175.9" pointer-events="stroke"/>
      <path class="cls-4" d="M795.5,215.1l-4.5-9,4.5,2.2,4.5-2.2-4.5,9Z" pointer-events="all"/>
    </g>
    <circle class="cls-3" cx="845.5" cy="271.5" r="15" pointer-events="all"/>
    <text class="cls-6" transform="translate(836.7 305)"><tspan x="0" y="0">6.0</tspan></text>
    <g>
      <path class="cls-1" d="M795.5,248.5c0,15.3,8.3,23,24.9,23" pointer-events="stroke"/>
      <path class="cls-4" d="M827.2,271.5l-9,4.5,2.2-4.5-2.2-4.5,9,4.5Z" pointer-events="all"/>
    </g>
    <circle class="cls-3" cx="905.5" cy="271.5" r="15" pointer-events="all"/>
    <text class="cls-6" transform="translate(896.7 305)"><tspan x="0" y="0">6.1</tspan></text>
    <g>
      <path class="cls-1" d="M860.5,271.5h19.9" pointer-events="stroke"/>
      <path class="cls-4" d="M887.2,271.5l-9,4.5,2.2-4.5-2.2-4.5,9,4.5Z" pointer-events="all"/>
    </g>
    <g>
      <path class="cls-1" d="M980.5,271.5c56.7,0,85-71.3,85-213.9" pointer-events="stroke"/>
      <path class="cls-4" d="M1065.5,50.8l4.5,9-4.5-2.2-4.5,2.2,4.5-9Z" pointer-events="all"/>
    </g>
    <circle class="cls-3" cx="965.5" cy="271.5" r="15" pointer-events="all"/>
    <text class="cls-6" transform="translate(956.7 305)"><tspan x="0" y="0">6.2</tspan></text>
    <g>
      <path class="cls-1" d="M920.5,271.5h19.9" pointer-events="stroke"/>
      <path class="cls-4" d="M947.2,271.5l-9,4.5,2.2-4.5-2.2-4.5,9,4.5Z" pointer-events="all"/>
    </g>
    <path class="cls-1" d="M1020.5,32.5c13.4,0,18.4,0,15.1,0s1.7,0,14.9,0" pointer-events="stroke"/>
    <circle class="cls-3" cx="1005.5" cy="32.5" r="15" pointer-events="all"/>
    <text class="cls-6" transform="translate(996.7 14)"><tspan x="0" y="0">6.3</tspan></text>
    <path class="cls-1" d="M1080.5,32.5h70" pointer-events="stroke"/>
    <circle class="cls-3" cx="1065.5" cy="32.5" r="15" pointer-events="all"/>
    <text class="cls-6" transform="translate(1056.7 14)"><tspan x="0" y="0">7.0</tspan></text>
    <g>
      <path class="cls-1" d="M1120.5,309.5c13.3,0,18.3,0,14.9,0s-1.7,0,5,0" pointer-events="stroke"/>
      <path class="cls-4" d="M1147.2,309.5l-9,4.5,2.2-4.5-2.2-4.5,9,4.5Z" pointer-events="all"/>
    </g>
    <circle class="cls-3" cx="1105.5" cy="309.5" r="15" pointer-events="all"/>
    <text class="cls-6" transform="translate(1096.7 343)"><tspan x="0" y="0">7.1</tspan></text>
    <g>
      <path class="cls-1" d="M1080.5,32.5c16.7,0,25,84,25,251.9" pointer-events="stroke"/>
      <path class="cls-4" d="M1105.5,291.1l-4.5-9,4.5,2.2,4.5-2.2-4.5,9Z" pointer-events="all"/>
    </g>
    <circle class="cls-3" cx="1165.5" cy="309.5" r="15" pointer-events="all"/>
    <text class="cls-6" transform="translate(1156.7 343)"><tspan x="0" y="0">7.2</tspan></text>
    <circle class="cls-3" cx="1165.5" cy="32.5" r="15" pointer-events="all"/>
    <text class="cls-6" transform="translate(1156.7 14)"><tspan x="0" y="0">8.0</tspan></text>
    <g>
      <path class="cls-1" d="M1165.5,294.5V57.6" pointer-events="stroke"/>
      <path class="cls-4" d="M1165.5,50.8l4.5,9-4.5-2.2-4.5,2.2,4.5-9Z" pointer-events="all"/>
    </g>
    <g>
      <path class="cls-1" d="M1240.5,355.5c13.3,0,18.3,0,14.9,0s-1.7,0,5,0" pointer-events="stroke"/>
      <path class="cls-4" d="M1267.2,355.5l-9,4.5,2.2-4.5-2.2-4.5,9,4.5Z" pointer-events="all"/>
    </g>
    <circle class="cls-3" cx="1225.5" cy="355.5" r="15" pointer-events="all"/>
    <text class="cls-6" transform="translate(1216.7 389)"><tspan x="0" y="0">8.1</tspan></text>
    <circle class="cls-3" cx="1285.5" cy="355.5" r="15" pointer-events="all"/>
    <text class="cls-6" transform="translate(1276.7 389)"><tspan x="0" y="0">8.2</tspan></text>
    <circle class="cls-3" cx="1345.5" cy="355.5" r="15" pointer-events="all"/>
    <text class="cls-6" transform="translate(1336.7 389)"><tspan x="0" y="0">8.3</tspan></text>
    <g>
      <path class="cls-1" d="M1405.5,340.5V57.6" pointer-events="stroke"/>
      <path class="cls-4" d="M1405.5,50.8l4.5,9-4.5-2.2-4.5,2.2,4.5-9Z" pointer-events="all"/>
    </g>
    <circle class="cls-3" cx="1405.5" cy="355.5" r="15" pointer-events="all"/>
    <text class="cls-6" transform="translate(1396.7 389)"><tspan x="0" y="0">8.4</tspan></text>
    <g>
      <path class="cls-1" d="M1180.5,32.5c30,0,45,99.3,45,297.9" pointer-events="stroke"/>
      <path class="cls-4" d="M1225.5,337.1l-4.5-9,4.5,2.2,4.5-2.2-4.5,9Z" pointer-events="all"/>
    </g>
    <g>
      <path class="cls-1" d="M1300.5,355.5h19.9" pointer-events="stroke"/>
      <path class="cls-4" d="M1327.2,355.5l-9,4.5,2.2-4.5-2.2-4.5,9,4.5Z" pointer-events="all"/>
    </g>
    <g>
      <path class="cls-1" d="M1360.5,355.5h19.9" pointer-events="stroke"/>
      <path class="cls-4" d="M1387.2,355.5l-9,4.5,2.2-4.5-2.2-4.5,9,4.5Z" pointer-events="all"/>
    </g>
    <g>
      <path class="cls-1" d="M499.5,134.5V57.6" pointer-events="stroke"/>
      <path class="cls-4" d="M499.5,50.8l4.5,9-4.5-2.2-4.5,2.2,4.5-9Z" pointer-events="all"/>
    </g>
    <path class="cls-1" d="M1180.5,32.5h210" pointer-events="stroke"/>
    <circle class="cls-3" cx="1405.5" cy="32.5" r="15" pointer-events="all"/>
    <text class="cls-6" transform="translate(1396.7 14)"><tspan x="0" y="0">9.0</tspan></text>
    <g>
      <path class="cls-1" d="M1480.5,391.5c13.3,0,17.8,0,13.5,0s-3.2,0,3.4,0" pointer-events="stroke"/>
      <path class="cls-4" d="M1504.2,391.5l-9,4.5,2.2-4.5-2.2-4.5,9,4.5Z" pointer-events="all"/>
    </g>
    <circle class="cls-3" cx="1465.5" cy="391.5" r="15" pointer-events="all"/>
    <text class="cls-6" transform="translate(1456.7 425)"><tspan x="0" y="0">9.1</tspan></text>
    <circle class="cls-3" cx="1522.5" cy="391.5" r="15" pointer-events="all"/>
    <text class="cls-6" transform="translate(1513.7 425)"><tspan x="0" y="0">9.2</tspan></text>
    <circle class="cls-3" cx="1578.5" cy="391.5" r="15" pointer-events="all"/>
    <text class="cls-6" transform="translate(1569.7 425)"><tspan x="0" y="0">9.3</tspan></text>
    <g>
      <path class="cls-1" d="M1635.5,376.5V57.6" pointer-events="stroke"/>
      <path class="cls-4" d="M1635.5,50.8l4.5,9-4.5-2.2-4.5,2.2,4.5-9Z" pointer-events="all"/>
    </g>
    <circle class="cls-3" cx="1635.5" cy="391.5" r="15" pointer-events="all"/>
    <text class="cls-6" transform="translate(1626.7 425)"><tspan x="0" y="0">9.4</tspan></text>
    <g>
      <path class="cls-1" d="M1420.5,32.5c30,0,45,111.3,45,333.9" pointer-events="stroke"/>
      <path class="cls-4" d="M1465.5,373.1l-4.5-9,4.5,2.2,4.5-2.2-4.5,9Z" pointer-events="all"/>
    </g>
    <g>
      <path class="cls-1" d="M1537.5,391.5h15.9" pointer-events="stroke"/>
      <path class="cls-4" d="M1560.2,391.5l-9,4.5,2.2-4.5-2.2-4.5,9,4.5Z" pointer-events="all"/>
    </g>
    <g>
      <path class="cls-1" d="M1593.5,391.5h16.9" pointer-events="stroke"/>
      <path class="cls-4" d="M1617.2,391.5l-9,4.5,2.2-4.5-2.2-4.5,9,4.5Z" pointer-events="all"/>
    </g>
    <circle class="cls-3" cx="1635.5" cy="32.5" r="15" pointer-events="all"/>
    <text class="cls-6" transform="translate(1623.3 14)"><tspan x="0" y="0">10.0</tspan></text>
    <path class="cls-1" d="M1420.5,32.5h200" pointer-events="stroke"/>
  </g>
  <path class="cls-2" d=""/>
</svg>