<?xml version="1.0" encoding="UTF-8"?>
<svg id="Layer_2" data-name="Layer 2" xmlns="http://www.w3.org/2000/svg" viewBox="0 0 115.93 119">
  <defs>
    <style>
      .cls-1 {
        fill: #00bdff;
      }

      .cls-1, .cls-2, .cls-3 {
        stroke-width: 0px;
      }

      .cls-2 {
        fill: #00ff67;
      }

      .cls-3 {
        fill: #fff;
      }
    </style>
  </defs>
  <g id="Layer_1-2" data-name="Layer 1">
    <path class="cls-3" d="M97.16,116.52H19.65V35.05h77.51v81.47ZM20.65,115.52h75.51V36.05H20.65v79.47Z"/>
    <rect class="cls-3" x="57.9" y="20.27" width="1" height="111.04" transform="translate(-36.14 61.11) rotate(-43.55)"/>
    <polygon class="cls-3" points="112.89 49.88 58.22 3.16 3.54 49.88 2.89 49.12 58.22 1.84 113.54 49.12 112.89 49.88"/>
    <g>
      <circle class="cls-1" cx="2.98" cy="50.67" r="1.98"/>
      <path class="cls-1" d="M2.98,53.65c-1.64,0-2.98-1.34-2.98-2.98s1.34-2.98,2.98-2.98,2.98,1.34,2.98,2.98-1.34,2.98-2.98,2.98ZM2.98,49.69c-.54,0-.98.44-.98.98s.44.98.98.98.98-.44.98-.98-.44-.98-.98-.98Z"/>
    </g>
    <g>
      <circle class="cls-1" cx="58.53" cy="2.98" r="1.98"/>
      <path class="cls-1" d="M58.53,5.96c-1.64,0-2.98-1.34-2.98-2.98s1.34-2.98,2.98-2.98,2.98,1.34,2.98,2.98-1.34,2.98-2.98,2.98ZM58.53,2c-.54,0-.98.44-.98.98s.44.98.98.98.98-.44.98-.98-.44-.98-.98-.98Z"/>
    </g>
    <g>
      <circle class="cls-1" cx="20.15" cy="116.02" r="1.98"/>
      <path class="cls-1" d="M20.15,119c-1.64,0-2.98-1.34-2.98-2.98s1.34-2.98,2.98-2.98,2.98,1.34,2.98,2.98-1.34,2.98-2.98,2.98ZM20.15,115.04c-.54,0-.98.44-.98.98s.44.98.98.98.98-.44.98-.98-.44-.98-.98-.98Z"/>
    </g>
    <g>
      <circle class="cls-1" cx="96.66" cy="35.55" r="1.98"/>
      <path class="cls-1" d="M96.66,38.53c-1.64,0-2.98-1.34-2.98-2.98s1.34-2.98,2.98-2.98,2.98,1.34,2.98,2.98-1.34,2.98-2.98,2.98ZM96.66,34.57c-.54,0-.98.44-.98.98s.44.98.98.98.98-.44.98-.98-.44-.98-.98-.98Z"/>
    </g>
    <g>
      <circle class="cls-1" cx="112.95" cy="49.55" r="1.98"/>
      <path class="cls-1" d="M112.95,52.53c-1.64,0-2.98-1.34-2.98-2.98s1.34-2.98,2.98-2.98,2.98,1.34,2.98,2.98-1.34,2.98-2.98,2.98ZM112.95,48.57c-.54,0-.98.44-.98.98s.44.98.98.98.98-.44.98-.98-.44-.98-.98-.98Z"/>
    </g>
    <g>
      <circle class="cls-2" cx="20.15" cy="35.55" r="1.98"/>
      <path class="cls-2" d="M20.15,38.53c-1.64,0-2.98-1.34-2.98-2.98s1.34-2.98,2.98-2.98,2.98,1.34,2.98,2.98-1.34,2.98-2.98,2.98ZM20.15,34.57c-.54,0-.98.44-.98.98s.44.98.98.98.98-.44.98-.98-.44-.98-.98-.98Z"/>
    </g>
    <g>
      <circle class="cls-2" cx="96.66" cy="116.02" r="1.98"/>
      <path class="cls-2" d="M96.66,119c-1.64,0-2.98-1.34-2.98-2.98s1.34-2.98,2.98-2.98,2.98,1.34,2.98,2.98-1.34,2.98-2.98,2.98ZM96.66,115.04c-.54,0-.98.44-.98.98s.44.98.98.98.98-.44.98-.98-.44-.98-.98-.98Z"/>
    </g>
  </g>
</svg>