<?xml version="1.0" encoding="UTF-8"?>
<svg id="Layer_2" data-name="Layer 2" xmlns="http://www.w3.org/2000/svg" viewBox="0 0 318.45 129.54">
  <defs>
    <style>
      .cls-1 {
        fill: #00bdff;
      }

      .cls-1, .cls-2, .cls-3 {
        stroke-width: 0px;
      }

      .cls-2 {
        fill: #00ff67;
      }

      .cls-3 {
        fill: #fff;
      }
    </style>
  </defs>
  <g id="Layer_1-2" data-name="Layer 1">
    <path class="cls-3" d="M149.53,57.12c-2.76,0-5.05-.54-6.89-1.62-1.83-1.08-3.22-2.57-4.17-4.48-.95-1.91-1.5-4.12-1.66-6.64l5.91-1.46c.12,1.55.38,3.04.8,4.48.41,1.44,1.09,2.62,2.04,3.53.94.92,2.26,1.38,3.96,1.38s3.04-.44,3.93-1.32c.89-.88,1.33-2.15,1.33-3.8,0-1.98-.49-3.57-1.48-4.78-.99-1.2-2.23-2.42-3.72-3.64l-8.04-6.48c-1.58-1.26-2.74-2.63-3.49-4.13-.75-1.49-1.12-3.34-1.12-5.53,0-3.2,1-5.68,3.01-7.45,2.01-1.76,4.75-2.64,8.22-2.64,1.89,0,3.56.23,4.99.67,1.44.45,2.64,1.14,3.61,2.08.97.94,1.73,2.11,2.3,3.53.57,1.42.95,3.09,1.15,4.99l-5.67,1.4c-.12-1.44-.35-2.76-.71-3.97-.35-1.2-.98-2.18-1.86-2.91-.89-.74-2.16-1.11-3.81-1.11s-2.95.4-3.87,1.21-1.39,2.01-1.39,3.59c0,1.33.25,2.43.74,3.29.49.86,1.29,1.75,2.39,2.64l8.1,6.48c1.81,1.44,3.41,3.16,4.79,5.15,1.38,2,2.07,4.36,2.07,7.1,0,2.16-.49,4.02-1.48,5.59-.99,1.56-2.33,2.76-4.05,3.59-1.71.83-3.69,1.24-5.94,1.24Z"/>
    <path class="cls-3" d="M166.2,56.63V12.92h6.68v18.89h12.29V12.92h6.68v43.71h-6.68v-20.45h-12.29v20.45h-6.68Z"/>
    <path class="cls-3" d="M199.35,56.63V12.92h18.56v4.53h-11.88v14.46h9.63v4.32h-9.63v16.03h12v4.37h-18.68Z"/>
    <path class="cls-3" d="M223.41,56.63V12.92h10.4c3.55,0,6.35.49,8.42,1.48,2.07.99,3.55,2.47,4.43,4.45.89,1.98,1.33,4.44,1.33,7.39v16.08c0,3.09-.44,5.7-1.33,7.83-.89,2.12-2.33,3.73-4.31,4.83-1.99,1.1-4.66,1.65-8.01,1.65h-10.93ZM230.09,52.26h3.78c2.44,0,4.18-.43,5.2-1.29,1.02-.86,1.65-2.12,1.86-3.78.22-1.65.32-3.65.32-5.99v-14.19c0-2.27-.16-4.1-.47-5.5-.32-1.4-1.01-2.43-2.07-3.08-1.06-.65-2.74-.97-5.02-.97h-3.61v34.81Z"/>
    <path class="cls-3" d="M280.33,57.12c-3.23,0-5.81-.58-7.74-1.73-1.93-1.15-3.31-2.8-4.14-4.94-.83-2.14-1.24-4.65-1.24-7.53v-16.57c0-2.88.42-5.35,1.27-7.42.85-2.07,2.23-3.65,4.14-4.75,1.91-1.1,4.48-1.65,7.71-1.65s5.79.56,7.68,1.67c1.89,1.12,3.26,2.7,4.11,4.75.85,2.05,1.27,4.52,1.27,7.39v16.62c0,2.84-.42,5.32-1.27,7.45-.85,2.12-2.22,3.77-4.11,4.94-1.89,1.17-4.45,1.75-7.68,1.75ZM280.33,52.31c1.77,0,3.11-.33,4.02-1,.91-.67,1.52-1.6,1.83-2.81.31-1.2.47-2.62.47-4.24v-19.16c0-1.62-.16-3.01-.47-4.18-.32-1.17-.93-2.07-1.83-2.7-.91-.63-2.25-.94-4.02-.94s-3.12.32-4.05.94c-.93.63-1.55,1.53-1.86,2.7-.32,1.17-.47,2.56-.47,4.18v19.16c0,1.62.16,3.03.47,4.24.31,1.21.94,2.14,1.86,2.81.93.67,2.28,1,4.05,1Z"/>
    <path class="cls-3" d="M299.95,56.63V12.92h18.5v4.37h-11.82v14.57h9.16v4.32h-9.16v20.45h-6.68Z"/>
    <path class="cls-3" d="M147.19,111.54c-3,0-5.39-.58-7.18-1.75-1.79-1.17-3.09-2.87-3.9-5.1-.81-2.23-1.21-4.91-1.21-8.04v-14.62c0-3.2.36-5.93,1.09-8.18.73-2.25,2.03-3.97,3.9-5.15,1.87-1.19,4.48-1.78,7.83-1.78,2.99,0,5.41.46,7.24,1.38,1.83.92,3.16,2.32,3.99,4.21.83,1.89,1.24,4.27,1.24,7.15v1.62h-6.27v-1.35c0-1.91-.14-3.46-.41-4.67-.28-1.2-.84-2.1-1.68-2.7-.85-.59-2.18-.89-3.99-.89-1.97,0-3.4.41-4.29,1.24-.89.83-1.44,1.95-1.66,3.37-.22,1.42-.32,3.03-.32,4.83v16.19c0,2.09.17,3.83.5,5.23.33,1.4.98,2.45,1.92,3.13.94.68,2.28,1.03,4.02,1.03s3.07-.38,4.02-1.13c.95-.76,1.6-1.87,1.95-3.35.35-1.47.53-3.31.53-5.5v-3.02h-6.09v-4.32h12.12v21.64h-4.2l-.65-5.02c-.63,1.62-1.62,2.95-2.96,3.99-1.34,1.04-3.19,1.56-5.56,1.56Z"/>
    <path class="cls-3" d="M167.4,111v-43.71h9.63c3.19,0,5.83.39,7.92,1.16,2.09.77,3.63,2.02,4.64,3.72,1,1.71,1.51,3.95,1.51,6.72,0,1.69-.2,3.23-.59,4.61-.39,1.39-1.03,2.55-1.89,3.51-.87.95-2.01,1.65-3.43,2.08l6.8,21.91h-6.44l-6.27-20.51h-5.2v20.51h-6.68ZM174.08,86.12h2.54c1.89,0,3.43-.22,4.61-.65s2.05-1.17,2.6-2.21c.55-1.04.83-2.5.83-4.37,0-2.55-.51-4.4-1.54-5.53-1.03-1.13-3.05-1.7-6.09-1.7h-2.96v14.46Z"/>
    <path class="cls-3" d="M195.48,111l10.17-43.71h6.44l10.22,43.71h-6.32l-2.19-11.01h-9.75l-2.3,11.01h-6.27ZM204.93,95.62h7.98l-4.02-19.7-3.96,19.7Z"/>
    <path class="cls-3" d="M227.15,111v-43.71h11.88c2.88,0,5.17.48,6.89,1.43,1.71.95,2.96,2.33,3.75,4.13.79,1.8,1.18,3.98,1.18,6.53,0,2.3-.44,4.3-1.33,5.99-.89,1.69-2.2,3-3.93,3.91-1.73.92-3.9,1.38-6.5,1.38h-5.26v20.34h-6.68ZM233.83,86.29h3.07c1.93,0,3.45-.2,4.55-.59,1.1-.4,1.89-1.09,2.36-2.08.47-.99.71-2.38.71-4.18,0-2.09-.17-3.69-.5-4.8-.34-1.11-1.03-1.89-2.1-2.32-1.06-.43-2.72-.65-4.96-.65h-3.13v14.62Z"/>
    <path class="cls-3" d="M255.53,111v-43.71h6.68v18.89h12.29v-18.89h6.68v43.71h-6.68v-20.45h-12.29v20.45h-6.68Z"/>
    <path class="cls-3" d="M299.97,111.49c-2.76,0-5.05-.54-6.89-1.62-1.83-1.08-3.22-2.57-4.17-4.48-.95-1.91-1.5-4.12-1.66-6.64l5.91-1.46c.12,1.55.38,3.04.8,4.48.41,1.44,1.09,2.62,2.04,3.53.94.92,2.26,1.38,3.96,1.38s3.04-.44,3.93-1.32c.89-.88,1.33-2.15,1.33-3.8,0-1.98-.49-3.57-1.48-4.78-.99-1.2-2.23-2.42-3.72-3.64l-8.04-6.48c-1.58-1.26-2.74-2.63-3.49-4.13-.75-1.49-1.12-3.34-1.12-5.53,0-3.2,1-5.68,3.01-7.45,2.01-1.76,4.75-2.64,8.22-2.64,1.89,0,3.56.23,4.99.67,1.44.45,2.64,1.14,3.61,2.08.97.94,1.73,2.11,2.3,3.53.57,1.42.95,3.09,1.15,4.99l-5.67,1.4c-.12-1.44-.35-2.76-.71-3.97-.35-1.2-.98-2.18-1.86-2.91-.89-.74-2.16-1.11-3.81-1.11s-2.95.4-3.87,1.21-1.39,2.01-1.39,3.59c0,1.33.25,2.43.74,3.29.49.86,1.29,1.75,2.39,2.64l8.1,6.48c1.81,1.44,3.41,3.16,4.79,5.15,1.38,2,2.07,4.36,2.07,7.1,0,2.16-.49,4.02-1.48,5.59-.99,1.56-2.33,2.76-4.05,3.59-1.71.83-3.69,1.24-5.94,1.24Z"/>
    <path class="cls-3" d="M94.27,127.06H16.76V45.59h77.51v81.47ZM17.76,126.06h75.51V46.59H17.76v79.47Z"/>
    <rect class="cls-3" x="55.01" y="30.81" width="1" height="111.04" transform="translate(-44.2 62.01) rotate(-43.55)"/>
    <polygon class="cls-3" points="110 60.42 55.33 13.7 .65 60.42 0 59.66 55.33 12.38 110.65 59.66 110 60.42"/>
    <g>
      <circle class="cls-1" cx="55.64" cy="13.52" r="1.98"/>
      <path class="cls-1" d="M55.64,16.5c-1.64,0-2.98-1.34-2.98-2.98s1.34-2.98,2.98-2.98,2.98,1.34,2.98,2.98-1.34,2.98-2.98,2.98ZM55.64,12.54c-.54,0-.98.44-.98.98s.44.98.98.98.98-.44.98-.98-.44-.98-.98-.98Z"/>
    </g>
    <g>
      <circle class="cls-1" cx="17.26" cy="126.56" r="1.98"/>
      <path class="cls-1" d="M17.26,129.54c-1.64,0-2.98-1.34-2.98-2.98s1.34-2.98,2.98-2.98,2.98,1.34,2.98,2.98-1.34,2.98-2.98,2.98ZM17.26,125.58c-.54,0-.98.44-.98.98s.44.98.98.98.98-.44.98-.98-.44-.98-.98-.98Z"/>
    </g>
    <g>
      <circle class="cls-1" cx="93.77" cy="46.09" r="1.98"/>
      <path class="cls-1" d="M93.77,49.07c-1.64,0-2.98-1.34-2.98-2.98s1.34-2.98,2.98-2.98,2.98,1.34,2.98,2.98-1.34,2.98-2.98,2.98ZM93.77,45.11c-.54,0-.98.44-.98.98s.44.98.98.98.98-.44.98-.98-.44-.98-.98-.98Z"/>
    </g>
    <g>
      <circle class="cls-1" cx="110.06" cy="60.09" r="1.98"/>
      <path class="cls-1" d="M110.06,63.07c-1.64,0-2.98-1.34-2.98-2.98s1.34-2.98,2.98-2.98,2.98,1.34,2.98,2.98-1.34,2.98-2.98,2.98ZM110.06,59.11c-.54,0-.98.44-.98.98s.44.98.98.98.98-.44.98-.98-.44-.98-.98-.98Z"/>
    </g>
    <rect class="cls-1" x="134.89" y="124" width="183.56" height="2"/>
    <g>
      <circle class="cls-2" cx="17.26" cy="46.09" r="1.98"/>
      <path class="cls-2" d="M17.26,49.07c-1.64,0-2.98-1.34-2.98-2.98s1.34-2.98,2.98-2.98,2.98,1.34,2.98,2.98-1.34,2.98-2.98,2.98ZM17.26,45.11c-.54,0-.98.44-.98.98s.44.98.98.98.98-.44.98-.98-.44-.98-.98-.98Z"/>
    </g>
    <g>
      <circle class="cls-2" cx="93.77" cy="126.56" r="1.98"/>
      <path class="cls-2" d="M93.77,129.54c-1.64,0-2.98-1.34-2.98-2.98s1.34-2.98,2.98-2.98,2.98,1.34,2.98,2.98-1.34,2.98-2.98,2.98ZM93.77,125.58c-.54,0-.98.44-.98.98s.44.98.98.98.98-.44.98-.98-.44-.98-.98-.98Z"/>
    </g>
    <rect class="cls-2" x="134.89" width="183.56" height="2"/>
  </g>
</svg>